<svg width="34" height="34" viewBox="0 0 34 34" fill="none" xmlns="http://www.w3.org/2000/svg">
<g filter="url(#filter0_d_1_214)">
<circle cx="17" cy="17" r="15" fill="url(#paint0_linear_1_214)"/>
</g>
<path d="M20.9056 11.3693C21.5123 10.7488 21.5076 9.75583 20.8951 9.14103C20.2701 8.51373 19.2524 8.51973 18.6349 9.15436L12.3574 15.6052C11.6018 16.3816 11.6018 17.6184 12.3574 18.3948L19.1123 25.3363C19.4674 25.7012 20.0525 25.7046 20.4118 25.344C21.2923 24.4603 21.299 23.0331 20.4269 22.1412L15.4 17L20.9056 11.3693Z" fill="url(#paint1_linear_1_214)" stroke="url(#paint2_linear_1_214)"/>
<defs>
<filter id="filter0_d_1_214" x="0" y="0" width="34" height="34" filterUnits="userSpaceOnUse" color-interpolation-filters="sRGB">
<feFlood flood-opacity="0" result="BackgroundImageFix"/>
<feColorMatrix in="SourceAlpha" type="matrix" values="0 0 0 0 0 0 0 0 0 0 0 0 0 0 0 0 0 0 127 0" result="hardAlpha"/>
<feOffset/>
<feGaussianBlur stdDeviation="1"/>
<feColorMatrix type="matrix" values="0 0 0 0 0.475204 0 0 0 0 0.475204 0 0 0 0 0.475204 0 0 0 0.5 0"/>
<feBlend mode="normal" in2="BackgroundImageFix" result="effect1_dropShadow_1_214"/>
<feBlend mode="normal" in="SourceGraphic" in2="effect1_dropShadow_1_214" result="shape"/>
</filter>
<linearGradient id="paint0_linear_1_214" x1="-0.976982" y1="-3.95396" x2="-0.976982" y2="32" gradientUnits="userSpaceOnUse">
<stop stop-color="#F5F4FF"/>
<stop offset="1" stop-color="#D2E7FF"/>
</linearGradient>
<linearGradient id="paint1_linear_1_214" x1="4.82391" y1="21.1917" x2="18.014" y2="-8.76633" gradientUnits="userSpaceOnUse">
<stop stop-color="#2B17E4"/>
<stop offset="0.529904" stop-color="#5937B9"/>
<stop offset="1" stop-color="#C86DD7"/>
</linearGradient>
<linearGradient id="paint2_linear_1_214" x1="4.82391" y1="21.1917" x2="18.014" y2="-8.76633" gradientUnits="userSpaceOnUse">
<stop stop-color="#2B17E4"/>
<stop offset="0.529904" stop-color="#5937B9"/>
<stop offset="1" stop-color="#C86DD7"/>
</linearGradient>
</defs>
</svg>
