<svg width="32" height="32" viewBox="0 0 32 32" fill="none" xmlns="http://www.w3.org/2000/svg">
<g filter="url(#filter0_d_1_552)">
<circle cx="16" cy="16" r="14" fill="url(#paint0_linear_1_552)"/>
</g>
<path fill-rule="evenodd" clip-rule="evenodd" d="M21.5685 10.4315C20.885 9.74812 19.777 9.74812 19.0936 10.4315L16 13.5251L12.9064 10.4315C12.223 9.74812 11.115 9.74812 10.4315 10.4315C9.74812 11.115 9.74812 12.223 10.4315 12.9064L13.5251 16L10.4315 19.0936C9.74812 19.777 9.74812 20.885 10.4315 21.5685C11.115 22.2519 12.223 22.2519 12.9064 21.5685L16 18.4749L19.0936 21.5685C19.777 22.2519 20.885 22.2519 21.5685 21.5685C22.2519 20.885 22.2519 19.777 21.5685 19.0936L18.4749 16L21.5685 12.9064C22.2519 12.223 22.2519 11.115 21.5685 10.4315Z" fill="url(#paint1_linear_1_552)"/>
<defs>
<filter id="filter0_d_1_552" x="0" y="0" width="32" height="32" filterUnits="userSpaceOnUse" color-interpolation-filters="sRGB">
<feFlood flood-opacity="0" result="BackgroundImageFix"/>
<feColorMatrix in="SourceAlpha" type="matrix" values="0 0 0 0 0 0 0 0 0 0 0 0 0 0 0 0 0 0 127 0" result="hardAlpha"/>
<feOffset/>
<feGaussianBlur stdDeviation="1"/>
<feColorMatrix type="matrix" values="0 0 0 0 0.475204 0 0 0 0 0.475204 0 0 0 0 0.475204 0 0 0 0.5 0"/>
<feBlend mode="normal" in2="BackgroundImageFix" result="effect1_dropShadow_1_552"/>
<feBlend mode="normal" in="SourceGraphic" in2="effect1_dropShadow_1_552" result="shape"/>
</filter>
<linearGradient id="paint0_linear_1_552" x1="-0.778516" y1="-3.55703" x2="-0.778516" y2="30" gradientUnits="userSpaceOnUse">
<stop stop-color="#F5F4FF"/>
<stop offset="1" stop-color="#D2E7FF"/>
</linearGradient>
<linearGradient id="paint1_linear_1_552" x1="25.2279" y1="30.415" x2="40.3107" y2="4.22795" gradientUnits="userSpaceOnUse">
<stop stop-color="#2B17E4"/>
<stop offset="0.529904" stop-color="#5937B9"/>
<stop offset="1" stop-color="#C86DD7"/>
</linearGradient>
</defs>
</svg>
