<svg width="29" height="42" viewBox="0 0 29 42" fill="none" xmlns="http://www.w3.org/2000/svg">
<g filter="url(#filter0_d_1_200)">
<rect x="2" y="2" width="25" height="38" rx="5" fill="url(#paint0_linear_1_200)"/>
</g>
<rect x="6.46428" y="8.33334" width="16.0714" height="25.3333" rx="3" fill="url(#paint1_linear_1_200)"/>
<path fill-rule="evenodd" clip-rule="evenodd" d="M8.46428 8.33334C7.35971 8.33334 6.46428 9.22878 6.46428 10.3333V31.6667C6.46428 32.7712 7.35971 33.6667 8.46428 33.6667H20.5357C21.6403 33.6667 22.5357 32.7712 22.5357 31.6667V26.1228C22.4079 26.1595 22.2732 26.1792 22.1339 26.1792H18.8192L15.9441 28.3647C15.7623 28.5 15.5045 28.367 15.5045 28.1385V26.1792H13.2946C12.4821 26.1792 11.8214 25.5098 11.8214 24.6864V17.969C11.8214 17.1456 12.4821 16.4762 13.2946 16.4762H22.1339C22.2732 16.4762 22.4079 16.4959 22.5357 16.5326V10.3333C22.5357 9.22877 21.6403 8.33334 20.5357 8.33334H8.46428ZM15.75 22.4476C15.75 21.898 15.3103 21.4524 14.7679 21.4524C14.2254 21.4524 13.7857 21.898 13.7857 22.4476C13.7857 22.9973 14.2254 23.4429 14.7679 23.4429C15.3103 23.4429 15.75 22.9973 15.75 22.4476ZM17.7143 21.4524C18.2567 21.4524 18.6964 21.898 18.6964 22.4476C18.6964 22.9973 18.2567 23.4429 17.7143 23.4429C17.1719 23.4429 16.7321 22.9973 16.7321 22.4476C16.7321 21.898 17.1719 21.4524 17.7143 21.4524ZM21.6428 22.4476C21.6428 21.898 21.2031 21.4524 20.6607 21.4524C20.1183 21.4524 19.6786 21.898 19.6786 22.4476C19.6786 22.9973 20.1183 23.4429 20.6607 23.4429C21.2031 23.4429 21.6428 22.9973 21.6428 22.4476Z" fill="url(#paint2_linear_1_200)"/>
<defs>
<filter id="filter0_d_1_200" x="0" y="0" width="29" height="42" filterUnits="userSpaceOnUse" color-interpolation-filters="sRGB">
<feFlood flood-opacity="0" result="BackgroundImageFix"/>
<feColorMatrix in="SourceAlpha" type="matrix" values="0 0 0 0 0 0 0 0 0 0 0 0 0 0 0 0 0 0 127 0" result="hardAlpha"/>
<feOffset/>
<feGaussianBlur stdDeviation="1"/>
<feColorMatrix type="matrix" values="0 0 0 0 0.733333 0 0 0 0 0.733333 0 0 0 0 0.733333 0 0 0 0.5 0"/>
<feBlend mode="normal" in2="BackgroundImageFix" result="effect1_dropShadow_1_200"/>
<feBlend mode="normal" in="SourceGraphic" in2="effect1_dropShadow_1_200" result="shape"/>
</filter>
<linearGradient id="paint0_linear_1_200" x1="-0.480818" y1="-5.54169" x2="-0.480818" y2="40" gradientUnits="userSpaceOnUse">
<stop stop-color="#F5F4FF"/>
<stop offset="1" stop-color="#D2E7FF"/>
</linearGradient>
<linearGradient id="paint1_linear_1_200" x1="22.2265" y1="8.57706" x2="6.46428" y2="8.57706" gradientUnits="userSpaceOnUse">
<stop stop-color="#F5F4FF"/>
<stop offset="1" stop-color="#D2E7FF"/>
</linearGradient>
<linearGradient id="paint2_linear_1_200" x1="31.5592" y1="26.8995" x2="13.4651" y2="-15.763" gradientUnits="userSpaceOnUse">
<stop stop-color="#2B17E4"/>
<stop offset="0.529904" stop-color="#5937B9"/>
<stop offset="1" stop-color="#C86DD7"/>
</linearGradient>
</defs>
</svg>
