<svg width="21" height="21" viewBox="0 0 21 21" fill="none" xmlns="http://www.w3.org/2000/svg">
<circle cx="10.5" cy="10.5" r="10.5" fill="white"/>
<path fill-rule="evenodd" clip-rule="evenodd" d="M10.5 21C16.299 21 21 16.299 21 10.5C21 4.70101 16.299 0 10.5 0C4.70101 0 0 4.70101 0 10.5C0 16.299 4.70101 21 10.5 21ZM10.5 17.1429C14.1687 17.1429 17.1429 14.1687 17.1429 10.5C17.1429 6.83125 14.1687 3.85714 10.5 3.85714C6.83125 3.85714 3.85714 6.83125 3.85714 10.5C3.85714 14.1687 6.83125 17.1429 10.5 17.1429Z" fill="url(#paint0_linear_1_169)"/>
<circle cx="10.5" cy="10.5" r="3.21429" fill="url(#paint1_linear_1_169)"/>
<defs>
<linearGradient id="paint0_linear_1_169" x1="32.7907" y1="15.3904" x2="22.3216" y2="-23.5192" gradientUnits="userSpaceOnUse">
<stop stop-color="#2B17E4"/>
<stop offset="0.529904" stop-color="#5937B9"/>
<stop offset="1" stop-color="#C86DD7"/>
</linearGradient>
<linearGradient id="paint1_linear_1_169" x1="5.52252" y1="8.50351" x2="7.95811" y2="14.9321" gradientUnits="userSpaceOnUse">
<stop stop-color="#00E3E6"/>
<stop offset="1" stop-color="#007635"/>
</linearGradient>
</defs>
</svg>
