<svg width="28" height="28" viewBox="0 0 28 28" fill="none" xmlns="http://www.w3.org/2000/svg">
<circle cx="14" cy="14" r="14" fill="url(#paint0_linear_1_168)"/>
<path fill-rule="evenodd" clip-rule="evenodd" d="M11.8801 6.02508C12.2764 5.16344 13.1547 4.62737 14.1021 4.66893V4.67406C15.3724 4.71875 16.3685 5.78036 16.3324 7.05103C16.3116 7.99919 15.7191 8.84046 14.8334 9.17927C13.9476 9.51809 12.9449 9.28704 12.2968 8.59476C11.6486 7.90248 11.4839 6.88672 11.8801 6.02508ZM10.2582 10.5033H12.6604H15.0869C15.3031 10.4834 15.5179 10.5541 15.6831 10.6995C15.8482 10.8449 15.9498 11.0529 15.9648 11.2765C16.0427 11.6809 15.9641 12.0638 15.8856 12.4468C15.8663 12.5405 15.8471 12.6342 15.8302 12.7282C15.5142 14.4747 15.2027 16.2203 14.8957 17.965C14.8624 18.1533 14.8277 18.3416 14.7929 18.5301C14.7097 18.9818 14.6263 19.4343 14.5617 19.8895C14.5325 20.1508 14.5406 20.415 14.586 20.6738C14.604 20.9054 14.7195 21.1172 14.9019 21.2532C15.0844 21.3891 15.3154 21.4356 15.5339 21.3802C15.8049 21.3167 16.0685 21.2234 16.3203 21.1021C16.4114 21.0609 16.4991 21.0094 16.5867 20.9578C16.7063 20.8875 16.8257 20.8173 16.9532 20.7739C17.0937 20.722 17.2495 20.7394 17.376 20.8212C17.4807 20.9682 17.5216 21.1535 17.4891 21.3329C17.4225 21.5383 17.3067 21.7229 17.1525 21.8697C16.3033 22.8017 15.1196 23.331 13.8804 23.3325C13.3021 23.3395 12.7241 23.3014 12.1514 23.2185C11.1846 23.0516 9.96734 21.7862 10.1801 20.4374C10.2509 19.9915 10.3173 19.545 10.3839 19.0985C10.4667 18.5425 10.5495 17.9863 10.6406 17.431C10.7277 16.8976 10.8199 16.3652 10.9122 15.833C11.0768 14.8836 11.2412 13.9347 11.3758 12.9813C11.4889 12.1859 11.1873 11.8466 10.4386 11.8104C10.154 11.7846 9.87603 11.7074 9.61724 11.5824C9.40464 11.4843 9.29105 11.2427 9.34793 11.0095C9.3785 10.7949 9.53549 10.6228 9.74112 10.5784C9.90957 10.5302 10.0834 10.505 10.2582 10.5033Z" fill="url(#paint1_linear_1_168)"/>
<defs>
<linearGradient id="paint0_linear_1_168" x1="-2.77852" y1="-5.55703" x2="-2.77852" y2="28" gradientUnits="userSpaceOnUse">
<stop stop-color="#ECECEC"/>
<stop offset="1" stop-color="#C4C5CD"/>
</linearGradient>
<linearGradient id="paint1_linear_1_168" x1="9.33334" y1="4.66667" x2="9.33334" y2="23.3333" gradientUnits="userSpaceOnUse">
<stop offset="0.000316723" stop-color="#393F50"/>
<stop offset="1"/>
</linearGradient>
</defs>
</svg>
