<svg width="98" height="20" viewBox="0 0 98 20" fill="none" xmlns="http://www.w3.org/2000/svg">
<path fill-rule="evenodd" clip-rule="evenodd" d="M5.57492 14.9028C6.27727 14.9028 6.89 14.8506 7.4131 14.7462C7.93621 14.6418 8.48675 14.4672 9.06472 14.2225V11.1447C8.25995 11.4255 7.56857 11.5659 6.99059 11.5659C6.21508 11.5659 5.82732 11.1699 5.82732 10.378V5.61555H8.87816V2.4514H5.82732V0H3.01792L1.90952 2.57019L0 3.89849V5.61555H1.50347V10.6587C1.50347 12.0986 1.82172 13.1659 2.45823 13.8607C3.09474 14.5554 4.13363 14.9028 5.57492 14.9028ZM14.3433 14.9028C15.2944 14.9028 16.07 14.7732 16.6699 14.514C17.2698 14.2549 17.8588 13.7725 18.4367 13.067H18.5245L19.3476 14.6868H22.3216V6.66307C22.3216 5.26638 21.8845 4.17927 21.0102 3.40173C20.1359 2.62419 18.9013 2.23542 17.3064 2.23542C15.0969 2.23542 13.2679 2.60259 11.8193 3.33693L13.0594 6.12311C14.4567 5.51836 15.609 5.21598 16.5162 5.21598C17.5259 5.21598 18.0307 5.71994 18.0307 6.72786V6.90065L15.9566 6.96544C14.208 7.04464 12.8728 7.40281 11.951 8.03996C11.0291 8.67711 10.5682 9.64723 10.5682 10.9503C10.5682 12.203 10.9047 13.1749 11.5778 13.8661C12.2509 14.5572 13.1728 14.9028 14.3433 14.9028ZM14.9469 10.7991C14.9469 11.5479 15.353 11.9222 16.1651 11.9222C16.6845 11.9222 17.129 11.7603 17.4984 11.4363C17.8679 11.1123 18.0526 10.6911 18.0526 10.1728V9.22246L17.0649 9.26566C15.6529 9.31606 14.9469 9.82721 14.9469 10.7991ZM29.5317 14.6868V8.67171C29.5317 7.87977 29.7439 7.27322 30.1682 6.85205C30.5925 6.43089 31.2729 6.2203 32.2094 6.2203C32.8313 6.2203 33.3178 6.2635 33.669 6.34989L34.0531 2.36501L33.8116 2.32181C33.4751 2.26422 33.1203 2.23542 32.7471 2.23542C32.096 2.23542 31.4504 2.43521 30.8102 2.83477C30.17 3.23434 29.6707 3.7581 29.3122 4.40605H29.1037L28.4343 2.4514H25.2408V14.6868H29.5317ZM45.4718 18.7581C44.1805 19.586 42.3679 20 40.034 20C38.2708 20 36.9119 19.7102 35.9571 19.1307C35.0023 18.5511 34.525 17.7178 34.525 16.6307C34.525 15.1692 35.4468 14.2261 37.2905 13.8013C36.91 13.6429 36.579 13.3873 36.2973 13.0346C36.0156 12.6818 35.8748 12.3326 35.8748 11.987C35.8748 11.6055 35.9809 11.2689 36.1931 10.9773C36.4052 10.6857 36.8479 10.3384 37.5209 9.93521C36.8771 9.65443 36.3705 9.21526 36.001 8.61771C35.6315 8.02016 35.4468 7.29302 35.4468 6.43629C35.4468 5.10439 35.9077 4.07127 36.8296 3.33693C37.7514 2.60259 39.0683 2.23542 40.7803 2.23542C41.0071 2.23542 41.3985 2.26062 41.9545 2.31102C42.5106 2.36141 42.9203 2.40821 43.1837 2.4514H47.5185V4.49244L45.8175 5.10799C46.0516 5.52556 46.1686 6.01152 46.1686 6.56587C46.1686 7.88337 45.6986 8.90569 44.7585 9.63283C43.8183 10.36 42.4155 10.7235 40.5498 10.7235C40.0889 10.7235 39.7231 10.6947 39.4524 10.6371C39.35 10.8243 39.2988 11.0007 39.2988 11.1663C39.2988 11.3751 39.4707 11.5353 39.8146 11.6469C40.1584 11.7585 40.6084 11.8143 41.1644 11.8143H43.2275C46.015 11.8143 47.4087 12.9698 47.4087 15.2808C47.4087 16.7711 46.7631 17.9302 45.4718 18.7581ZM40.8242 8.33693C39.9389 8.33693 39.4963 7.71058 39.4963 6.45788C39.4963 5.20518 39.9389 4.57883 40.8242 4.57883C41.6802 4.57883 42.1082 5.21238 42.1082 6.47948C42.1082 7.09863 41.9966 7.56299 41.7735 7.87257C41.5503 8.18215 41.2339 8.33693 40.8242 8.33693ZM38.7171 17.0464C39.0976 17.2588 39.606 17.365 40.2425 17.365C41.2814 17.365 42.1137 17.2372 42.7392 16.9816C43.3647 16.7261 43.6775 16.3967 43.6775 15.9935C43.6775 15.6695 43.4873 15.441 43.1068 15.3078C42.7264 15.1746 42.1813 15.108 41.4717 15.108H39.7926C39.3317 15.108 38.9421 15.2142 38.6238 15.4266C38.3056 15.6389 38.1465 15.8999 38.1465 16.2095C38.1465 16.5551 38.3367 16.8341 38.7171 17.0464ZM55.409 14.9028C56.404 14.9028 57.2599 14.838 57.9769 14.7084C58.6939 14.5788 59.389 14.3449 60.062 14.0065V10.9719C59.3231 11.3103 58.6372 11.5497 58.0044 11.6901C57.3715 11.8305 56.6783 11.9006 55.9247 11.9006C55.098 11.9006 54.4451 11.7063 53.9658 11.3175C53.4866 10.9287 53.2324 10.3924 53.2031 9.70842H60.8741V7.82937C60.8741 6.02232 60.3638 4.63823 59.3432 3.67711C58.3226 2.71598 56.8758 2.23542 55.0029 2.23542C53.0349 2.23542 51.5204 2.78798 50.4596 3.89309C49.3987 4.9982 48.8683 6.58387 48.8683 8.65011C48.8683 10.6515 49.4408 12.194 50.5858 13.2775C51.7308 14.3611 53.3385 14.9028 55.409 14.9028ZM53.2909 7.05184H56.9783C56.9636 6.46148 56.7935 5.98992 56.468 5.63715C56.1424 5.28438 55.7053 5.10799 55.1566 5.10799C54.6517 5.10799 54.2292 5.26458 53.889 5.57775C53.5488 5.89093 53.3495 6.38229 53.2909 7.05184ZM67.5904 14.6868V9.33045C67.5904 7.99136 67.744 7.02664 68.0513 6.43629C68.3586 5.84593 68.8487 5.55076 69.5218 5.55076C70.012 5.55076 70.3669 5.75774 70.5863 6.17171C70.8058 6.58567 70.9156 7.20662 70.9156 8.03456V14.6868H75.2175V8.98488C75.2175 7.80418 75.3711 6.93665 75.6784 6.38229C75.9857 5.82793 76.4685 5.55076 77.127 5.55076C77.6245 5.55076 77.9885 5.75774 78.2189 6.17171C78.4494 6.58567 78.5646 7.20662 78.5646 8.03456V14.6868H82.8555V6.72786C82.8555 5.21598 82.5044 4.08927 81.802 3.34773C81.0997 2.60619 80.0132 2.23542 78.5427 2.23542C77.7891 2.23542 77.0996 2.37761 76.474 2.66199C75.8485 2.94636 75.3601 3.34053 75.009 3.84449H74.6688C73.9445 2.77178 72.6861 2.23542 70.8936 2.23542C70.0962 2.23542 69.3847 2.38301 68.7591 2.67819C68.1336 2.97336 67.6562 3.40173 67.327 3.96328H67.0746L66.5368 2.4514H63.2994V14.6868H67.5904ZM90.7625 18.9741C89.8443 19.658 88.6463 20 87.1684 20C86.5978 20 86.0125 19.9388 85.4125 19.8164V16.5011C85.8003 16.5875 86.2429 16.6307 86.7404 16.6307C87.1209 16.6307 87.4538 16.5587 87.7391 16.4147C88.0244 16.2707 88.2732 16.0673 88.4853 15.8045C88.6975 15.5418 88.9243 15.1116 89.1657 14.514L84.2712 2.4514H88.7926L90.8997 9.47084C91.0021 9.83801 91.0716 10.2808 91.1082 10.7991H91.196C91.2545 10.3024 91.3423 9.86681 91.4594 9.49244L93.6213 2.4514H98L93.0835 15.4644C92.4543 17.1202 91.6807 18.2901 90.7625 18.9741Z" fill="#417505"/>
<path fill-rule="evenodd" clip-rule="evenodd" d="M5.57492 14.9028C6.27727 14.9028 6.89 14.8506 7.4131 14.7462C7.93621 14.6418 8.48675 14.4672 9.06472 14.2225V11.1447C8.25995 11.4255 7.56857 11.5659 6.99059 11.5659C6.21508 11.5659 5.82732 11.1699 5.82732 10.378V5.61555H8.87816V2.4514H5.82732V0H3.01792L1.90952 2.57019L0 3.89849V5.61555H1.50347V10.6587C1.50347 12.0986 1.82172 13.1659 2.45823 13.8607C3.09474 14.5554 4.13363 14.9028 5.57492 14.9028ZM14.3433 14.9028C15.2944 14.9028 16.07 14.7732 16.6699 14.514C17.2698 14.2549 17.8588 13.7725 18.4367 13.067H18.5245L19.3476 14.6868H22.3216V6.66307C22.3216 5.26638 21.8845 4.17927 21.0102 3.40173C20.1359 2.62419 18.9013 2.23542 17.3064 2.23542C15.0969 2.23542 13.2679 2.60259 11.8193 3.33693L13.0594 6.12311C14.4567 5.51836 15.609 5.21598 16.5162 5.21598C17.5259 5.21598 18.0307 5.71994 18.0307 6.72786V6.90065L15.9566 6.96544C14.208 7.04464 12.8728 7.40281 11.951 8.03996C11.0291 8.67711 10.5682 9.64723 10.5682 10.9503C10.5682 12.203 10.9047 13.1749 11.5778 13.8661C12.2509 14.5572 13.1728 14.9028 14.3433 14.9028ZM14.9469 10.7991C14.9469 11.5479 15.353 11.9222 16.1651 11.9222C16.6845 11.9222 17.129 11.7603 17.4984 11.4363C17.8679 11.1123 18.0526 10.6911 18.0526 10.1728V9.22246L17.0649 9.26566C15.6529 9.31606 14.9469 9.82721 14.9469 10.7991ZM29.5317 14.6868V8.67171C29.5317 7.87977 29.7439 7.27322 30.1682 6.85205C30.5925 6.43089 31.2729 6.2203 32.2094 6.2203C32.8313 6.2203 33.3178 6.2635 33.669 6.34989L34.0531 2.36501L33.8116 2.32181C33.4751 2.26422 33.1203 2.23542 32.7471 2.23542C32.096 2.23542 31.4504 2.43521 30.8102 2.83477C30.17 3.23434 29.6707 3.7581 29.3122 4.40605H29.1037L28.4343 2.4514H25.2408V14.6868H29.5317ZM45.4718 18.7581C44.1805 19.586 42.3679 20 40.034 20C38.2708 20 36.9119 19.7102 35.9571 19.1307C35.0023 18.5511 34.525 17.7178 34.525 16.6307C34.525 15.1692 35.4468 14.2261 37.2905 13.8013C36.91 13.6429 36.579 13.3873 36.2973 13.0346C36.0156 12.6818 35.8748 12.3326 35.8748 11.987C35.8748 11.6055 35.9809 11.2689 36.1931 10.9773C36.4052 10.6857 36.8479 10.3384 37.5209 9.93521C36.8771 9.65443 36.3705 9.21526 36.001 8.61771C35.6315 8.02016 35.4468 7.29302 35.4468 6.43629C35.4468 5.10439 35.9077 4.07127 36.8296 3.33693C37.7514 2.60259 39.0683 2.23542 40.7803 2.23542C41.0071 2.23542 41.3985 2.26062 41.9545 2.31102C42.5106 2.36141 42.9203 2.40821 43.1837 2.4514H47.5185V4.49244L45.8175 5.10799C46.0516 5.52556 46.1686 6.01152 46.1686 6.56587C46.1686 7.88337 45.6986 8.90569 44.7585 9.63283C43.8183 10.36 42.4155 10.7235 40.5498 10.7235C40.0889 10.7235 39.7231 10.6947 39.4524 10.6371C39.35 10.8243 39.2988 11.0007 39.2988 11.1663C39.2988 11.3751 39.4707 11.5353 39.8146 11.6469C40.1584 11.7585 40.6084 11.8143 41.1644 11.8143H43.2275C46.015 11.8143 47.4087 12.9698 47.4087 15.2808C47.4087 16.7711 46.7631 17.9302 45.4718 18.7581ZM40.8242 8.33693C39.9389 8.33693 39.4963 7.71058 39.4963 6.45788C39.4963 5.20518 39.9389 4.57883 40.8242 4.57883C41.6802 4.57883 42.1082 5.21238 42.1082 6.47948C42.1082 7.09863 41.9966 7.56299 41.7735 7.87257C41.5503 8.18215 41.2339 8.33693 40.8242 8.33693ZM38.7171 17.0464C39.0976 17.2588 39.606 17.365 40.2425 17.365C41.2814 17.365 42.1137 17.2372 42.7392 16.9816C43.3647 16.7261 43.6775 16.3967 43.6775 15.9935C43.6775 15.6695 43.4873 15.441 43.1068 15.3078C42.7264 15.1746 42.1813 15.108 41.4717 15.108H39.7926C39.3317 15.108 38.9421 15.2142 38.6238 15.4266C38.3056 15.6389 38.1465 15.8999 38.1465 16.2095C38.1465 16.5551 38.3367 16.8341 38.7171 17.0464ZM55.409 14.9028C56.404 14.9028 57.2599 14.838 57.9769 14.7084C58.6939 14.5788 59.389 14.3449 60.062 14.0065V10.9719C59.3231 11.3103 58.6372 11.5497 58.0044 11.6901C57.3715 11.8305 56.6783 11.9006 55.9247 11.9006C55.098 11.9006 54.4451 11.7063 53.9658 11.3175C53.4866 10.9287 53.2324 10.3924 53.2031 9.70842H60.8741V7.82937C60.8741 6.02232 60.3638 4.63823 59.3432 3.67711C58.3226 2.71598 56.8758 2.23542 55.0029 2.23542C53.0349 2.23542 51.5204 2.78798 50.4596 3.89309C49.3987 4.9982 48.8683 6.58387 48.8683 8.65011C48.8683 10.6515 49.4408 12.194 50.5858 13.2775C51.7308 14.3611 53.3385 14.9028 55.409 14.9028ZM53.2909 7.05184H56.9783C56.9636 6.46148 56.7935 5.98992 56.468 5.63715C56.1424 5.28438 55.7053 5.10799 55.1566 5.10799C54.6517 5.10799 54.2292 5.26458 53.889 5.57775C53.5488 5.89093 53.3495 6.38229 53.2909 7.05184ZM67.5904 14.6868V9.33045C67.5904 7.99136 67.744 7.02664 68.0513 6.43629C68.3586 5.84593 68.8487 5.55076 69.5218 5.55076C70.012 5.55076 70.3669 5.75774 70.5863 6.17171C70.8058 6.58567 70.9156 7.20662 70.9156 8.03456V14.6868H75.2175V8.98488C75.2175 7.80418 75.3711 6.93665 75.6784 6.38229C75.9857 5.82793 76.4685 5.55076 77.127 5.55076C77.6245 5.55076 77.9885 5.75774 78.2189 6.17171C78.4494 6.58567 78.5646 7.20662 78.5646 8.03456V14.6868H82.8555V6.72786C82.8555 5.21598 82.5044 4.08927 81.802 3.34773C81.0997 2.60619 80.0132 2.23542 78.5427 2.23542C77.7891 2.23542 77.0996 2.37761 76.474 2.66199C75.8485 2.94636 75.3601 3.34053 75.009 3.84449H74.6688C73.9445 2.77178 72.6861 2.23542 70.8936 2.23542C70.0962 2.23542 69.3847 2.38301 68.7591 2.67819C68.1336 2.97336 67.6562 3.40173 67.327 3.96328H67.0746L66.5368 2.4514H63.2994V14.6868H67.5904ZM90.7625 18.9741C89.8443 19.658 88.6463 20 87.1684 20C86.5978 20 86.0125 19.9388 85.4125 19.8164V16.5011C85.8003 16.5875 86.2429 16.6307 86.7404 16.6307C87.1209 16.6307 87.4538 16.5587 87.7391 16.4147C88.0244 16.2707 88.2732 16.0673 88.4853 15.8045C88.6975 15.5418 88.9243 15.1116 89.1657 14.514L84.2712 2.4514H88.7926L90.8997 9.47084C91.0021 9.83801 91.0716 10.2808 91.1082 10.7991H91.196C91.2545 10.3024 91.3423 9.86681 91.4594 9.49244L93.6213 2.4514H98L93.0835 15.4644C92.4543 17.1202 91.6807 18.2901 90.7625 18.9741Z" fill="url(#paint0_linear_135_204)"/>
<defs>
<linearGradient id="paint0_linear_135_204" x1="153.53" y1="24.5244" x2="153.53" y2="-18.1411" gradientUnits="userSpaceOnUse">
<stop stop-color="#2B17E4"/>
<stop offset="0.425874" stop-color="#5937B9"/>
<stop offset="1" stop-color="#C86DD7"/>
</linearGradient>
</defs>
</svg>
